<svg width="297" height="263" viewBox="0 0 297 263" fill="none" xmlns="http://www.w3.org/2000/svg">
<g clip-path="url(#clip0_1776_141)">
<path d="M132.358 0L102 30.417V145H203.301V0H132.358ZM130.943 8.25182V29H110.236L130.943 8.25182ZM198.48 140.169H106.822V33.8311H135.765V4.83114H198.473V140.169H198.48Z" fill="#57B8FF"/>
<path d="M140.179 57.4136L133.357 64.2483L126.536 57.4136L123.122 60.8277L129.943 67.6624L123.122 74.4972L126.536 77.9113L133.357 71.0765L140.179 77.9113L143.593 74.4972L136.771 67.6624L143.593 60.8277L140.179 57.4136Z" fill="#57B8FF"/>
<path d="M162.715 77.9179L169.537 71.0831L176.358 77.9179L179.772 74.5038L172.951 67.669L179.772 60.8343L176.358 57.4202L169.537 64.2549L162.715 57.4136L159.301 60.8277L166.123 67.6624L159.301 74.4972L162.715 77.9179Z" fill="#57B8FF"/>
<path d="M131.647 99.7931L135.054 103.207L137.297 100.96C145.783 92.4838 159.511 92.4838 167.997 100.96L170.24 103.207L173.648 99.7931L171.404 97.5456C161.038 87.1847 144.25 87.1847 133.883 97.5456L131.647 99.7931Z" fill="#57B8FF"/>
</g>
<path d="M58.4535 10.38L12.4735 89.99L58.0735 90.18L58.4535 10.38ZM60.1635 142.24H58.0735V93.79H7.34348H5.82348H4.68348L57.3135 3.72999H62.2535V90.18H75.5535V93.79H62.2535V142.24H60.1635Z" fill="#57B8FF"/>
<path d="M58.4535 10.38L58.9535 10.3824L58.9624 8.49906L58.0205 10.1299L58.4535 10.38ZM12.4735 89.99L12.0405 89.7399L11.6094 90.4864L12.4714 90.49L12.4735 89.99ZM58.0735 90.18L58.0714 90.68L58.5711 90.6821L58.5735 90.1824L58.0735 90.18ZM58.0735 142.24H57.5735V142.74H58.0735V142.24ZM58.0735 93.79H58.5735V93.29H58.0735V93.79ZM4.68348 93.79L4.25179 93.5377L3.81217 94.29H4.68348V93.79ZM57.3135 3.72999V3.22999H57.0266L56.8818 3.47772L57.3135 3.72999ZM62.2535 3.72999H62.7535V3.22999H62.2535V3.72999ZM62.2535 90.18H61.7535V90.68H62.2535V90.18ZM75.5535 90.18H76.0535V89.68H75.5535V90.18ZM75.5535 93.79V94.29H76.0535V93.79H75.5535ZM62.2535 93.79V93.29H61.7535V93.79H62.2535ZM62.2535 142.24V142.74H62.7535V142.24H62.2535ZM58.0205 10.1299L12.0405 89.7399L12.9064 90.2401L58.8865 10.6301L58.0205 10.1299ZM12.4714 90.49L58.0714 90.68L58.0756 89.68L12.4756 89.49L12.4714 90.49ZM58.5735 90.1824L58.9535 10.3824L57.9535 10.3776L57.5735 90.1776L58.5735 90.1824ZM60.1635 141.74H58.0735V142.74H60.1635V141.74ZM58.5735 142.24V93.79H57.5735V142.24H58.5735ZM58.0735 93.29H7.34348V94.29H58.0735V93.29ZM7.34348 93.29H5.82348V94.29H7.34348V93.29ZM5.82348 93.29H4.68348V94.29H5.82348V93.29ZM5.11517 94.0423L57.7452 3.98227L56.8818 3.47772L4.25179 93.5377L5.11517 94.0423ZM57.3135 4.22999H62.2535V3.22999H57.3135V4.22999ZM61.7535 3.72999V90.18H62.7535V3.72999H61.7535ZM62.2535 90.68H75.5535V89.68H62.2535V90.68ZM75.0535 90.18V93.79H76.0535V90.18H75.0535ZM75.5535 93.29H62.2535V94.29H75.5535V93.29ZM61.7535 93.79V142.24H62.7535V93.79H61.7535ZM62.2535 141.74H60.1635V142.74H62.2535V141.74Z" fill="#57B8FF"/>
<path d="M277.453 10.38L231.473 89.99L277.073 90.18L277.453 10.38ZM279.163 142.24H277.073V93.79H226.343H224.823H223.683L276.313 3.72999H281.253V90.18H294.553V93.79H281.253V142.24H279.163Z" fill="#57B8FF"/>
<path d="M277.453 10.38L277.953 10.3824L277.962 8.49906L277.021 10.1299L277.453 10.38ZM231.473 89.99L231.041 89.7399L230.609 90.4864L231.471 90.49L231.473 89.99ZM277.073 90.18L277.071 90.68L277.571 90.6821L277.573 90.1824L277.073 90.18ZM277.073 142.24H276.573V142.74H277.073V142.24ZM277.073 93.79H277.573V93.29H277.073V93.79ZM223.683 93.79L223.252 93.5377L222.812 94.29H223.683V93.79ZM276.313 3.72999V3.22999H276.027L275.882 3.47772L276.313 3.72999ZM281.253 3.72999H281.753V3.22999H281.253V3.72999ZM281.253 90.18H280.753V90.68H281.253V90.18ZM294.553 90.18H295.053V89.68H294.553V90.18ZM294.553 93.79V94.29H295.053V93.79H294.553ZM281.253 93.79V93.29H280.753V93.79H281.253ZM281.253 142.24V142.74H281.753V142.24H281.253ZM277.021 10.1299L231.041 89.7399L231.906 90.2401L277.886 10.6301L277.021 10.1299ZM231.471 90.49L277.071 90.68L277.076 89.68L231.476 89.49L231.471 90.49ZM277.573 90.1824L277.953 10.3824L276.953 10.3776L276.573 90.1776L277.573 90.1824ZM279.163 141.74H277.073V142.74H279.163V141.74ZM277.573 142.24V93.79H276.573V142.24H277.573ZM277.073 93.29H226.343V94.29H277.073V93.29ZM226.343 93.29H224.823V94.29H226.343V93.29ZM224.823 93.29H223.683V94.29H224.823V93.29ZM224.115 94.0423L276.745 3.98227L275.882 3.47772L223.252 93.5377L224.115 94.0423ZM276.313 4.22999H281.253V3.22999H276.313V4.22999ZM280.753 3.72999V90.18H281.753V3.72999H280.753ZM281.253 90.68H294.553V89.68H281.253V90.68ZM294.053 90.18V93.79H295.053V90.18H294.053ZM294.553 93.29H281.253V94.29H294.553V93.29ZM280.753 93.79V142.24H281.753V93.79H280.753ZM281.253 141.74H279.163V142.74H281.253V141.74Z" fill="#57B8FF"/>
<path d="M54.841 241.929V238.101H42.3254V235.335L54.7004 225.038H58.3254V235.335H62.3254V238.101H58.3254V241.929H54.841ZM54.841 235.335V227.944L45.8098 235.335H54.841ZM70.9504 238.772H82.7473V228.038H70.9504V238.772ZM67.4973 229.132C67.4973 227.621 67.7577 226.595 68.2785 226.054C68.8098 225.502 69.8046 225.226 71.2629 225.226H82.4348C83.9035 225.226 84.8983 225.502 85.4192 226.054C85.9504 226.595 86.216 227.621 86.216 229.132V237.835C86.216 239.345 85.9504 240.377 85.4192 240.929C84.8983 241.47 83.9035 241.741 82.4348 241.741H71.2629C69.8046 241.741 68.8098 241.47 68.2785 240.929C67.7577 240.377 67.4973 239.345 67.4973 237.835V229.132ZM104.341 241.929V238.101H91.8254V235.335L104.2 225.038H107.825V235.335H111.825V238.101H107.825V241.929H104.341ZM104.341 235.335V227.944L95.3098 235.335H104.341ZM130.607 241.741V225.226H147.513V228.038H134.45V231.726H142.075V234.538H134.45V238.632H147.669V241.741H130.607ZM167.185 228.085H158.544V232.679H167.185C167.851 232.679 168.305 232.585 168.544 232.397C168.794 232.2 168.919 231.856 168.919 231.366V229.382C168.919 228.903 168.794 228.569 168.544 228.382C168.305 228.184 167.851 228.085 167.185 228.085ZM154.763 241.741V225.226H168.888C170.2 225.226 171.148 225.481 171.732 225.991C172.325 226.491 172.622 227.304 172.622 228.429V232.304C172.622 233.418 172.325 234.231 171.732 234.741C171.148 235.252 170.2 235.507 168.888 235.507H166.732L174.357 241.741H168.841L162.185 235.507H158.544V241.741H154.763ZM192.841 228.085H184.2V232.679H192.841C193.508 232.679 193.961 232.585 194.2 232.397C194.45 232.2 194.575 231.856 194.575 231.366V229.382C194.575 228.903 194.45 228.569 194.2 228.382C193.961 228.184 193.508 228.085 192.841 228.085ZM180.419 241.741V225.226H194.544C195.857 225.226 196.805 225.481 197.388 225.991C197.982 226.491 198.279 227.304 198.279 228.429V232.304C198.279 233.418 197.982 234.231 197.388 234.741C196.805 235.252 195.857 235.507 194.544 235.507H192.388L200.013 241.741H194.497L187.841 235.507H184.2V241.741H180.419ZM205.732 229.132C205.732 227.632 206.013 226.606 206.575 226.054C207.138 225.502 208.221 225.226 209.825 225.226H221.982C223.586 225.226 224.669 225.502 225.232 226.054C225.794 226.606 226.075 227.632 226.075 229.132V237.835C226.075 239.345 225.794 240.377 225.232 240.929C224.669 241.47 223.586 241.741 221.982 241.741H209.825C208.221 241.741 207.138 241.47 206.575 240.929C206.013 240.377 205.732 239.345 205.732 237.835V229.132ZM209.575 238.632H222.247V228.179H209.575V238.632ZM246.591 228.085H237.95V232.679H246.591C247.258 232.679 247.711 232.585 247.95 232.397C248.2 232.2 248.325 231.856 248.325 231.366V229.382C248.325 228.903 248.2 228.569 247.95 228.382C247.711 228.184 247.258 228.085 246.591 228.085ZM234.169 241.741V225.226H248.294C249.607 225.226 250.555 225.481 251.138 225.991C251.732 226.491 252.029 227.304 252.029 228.429V232.304C252.029 233.418 251.732 234.231 251.138 234.741C250.555 235.252 249.607 235.507 248.294 235.507H246.138L253.763 241.741H248.247L241.591 235.507H237.95V241.741H234.169Z" fill="#57B8FF"/>
<line x1="12" y1="206.5" x2="285" y2="206.5" stroke="#57B8FF" stroke-width="3"/>
<line x1="12" y1="260.5" x2="285" y2="260.5" stroke="#57B8FF" stroke-width="3"/>
<defs>
<clipPath id="clip0_1776_141">
<rect width="101.301" height="145" fill="white" transform="translate(102)"/>
</clipPath>
</defs>
</svg>
