<svg width="32" height="32" viewBox="0 0 32 32" fill="none" xmlns="http://www.w3.org/2000/svg">
<g filter="url(#filter0_b_1186_37371)">
<circle cx="16" cy="16" r="16" fill="#1D1D1D" fill-opacity="0.6"/>
</g>
<path fill-rule="evenodd" clip-rule="evenodd" d="M13.4453 9.63012C13.5689 9.44465 13.7771 9.33325 14 9.33325H18C18.2229 9.33325 18.4311 9.44465 18.5547 9.63012L19.6901 11.3333H22C22.5304 11.3333 23.0391 11.544 23.4142 11.919C23.7893 12.2941 24 12.8028 24 13.3333V20.6666C24 21.197 23.7893 21.7057 23.4142 22.0808C23.0391 22.4559 22.5304 22.6666 22 22.6666H10C9.46957 22.6666 8.96086 22.4559 8.58579 22.0808C8.21071 21.7057 8 21.197 8 20.6666V13.3333C8 12.8028 8.21071 12.2941 8.58579 11.919C8.96086 11.544 9.46957 11.3333 10 11.3333H12.3099L13.4453 9.63012ZM14.3568 10.6666L13.2214 12.3697C13.0977 12.5552 12.8896 12.6666 12.6667 12.6666H10C9.82319 12.6666 9.65362 12.7368 9.5286 12.8618C9.40357 12.9869 9.33333 13.1564 9.33333 13.3333V20.6666C9.33333 20.8434 9.40357 21.013 9.5286 21.138C9.65362 21.263 9.82319 21.3333 10 21.3333H22C22.1768 21.3333 22.3464 21.263 22.4714 21.138C22.5964 21.013 22.6667 20.8434 22.6667 20.6666V13.3333C22.6667 13.1564 22.5964 12.9869 22.4714 12.8618C22.3464 12.7368 22.1768 12.6666 22 12.6666H19.3333C19.1104 12.6666 18.9023 12.5552 18.7786 12.3697L17.6432 10.6666H14.3568Z" fill="#EFEFEF"/>
<path fill-rule="evenodd" clip-rule="evenodd" d="M16.0003 14.6666C14.8958 14.6666 14.0003 15.562 14.0003 16.6666C14.0003 17.7712 14.8958 18.6666 16.0003 18.6666C17.1049 18.6666 18.0003 17.7712 18.0003 16.6666C18.0003 15.562 17.1049 14.6666 16.0003 14.6666ZM12.667 16.6666C12.667 14.8256 14.1594 13.3333 16.0003 13.3333C17.8413 13.3333 19.3337 14.8256 19.3337 16.6666C19.3337 18.5075 17.8413 19.9999 16.0003 19.9999C14.1594 19.9999 12.667 18.5075 12.667 16.6666Z" fill="#EFEFEF"/>
<defs>
<filter id="filter0_b_1186_37371" x="-40" y="-40" width="112" height="112" filterUnits="userSpaceOnUse" color-interpolation-filters="sRGB">
<feFlood flood-opacity="0" result="BackgroundImageFix"/>
<feGaussianBlur in="BackgroundImage" stdDeviation="20"/>
<feComposite in2="SourceAlpha" operator="in" result="effect1_backgroundBlur_1186_37371"/>
<feBlend mode="normal" in="SourceGraphic" in2="effect1_backgroundBlur_1186_37371" result="shape"/>
</filter>
</defs>
</svg>
