<svg width="144" height="144" viewBox="0 0 144 144" fill="none" xmlns="http://www.w3.org/2000/svg">
<path fill-rule="evenodd" clip-rule="evenodd" d="M93.978 22.6406C83.3415 17.9012 71.4578 16.7271 60.0994 19.2934C48.7411 21.8596 38.5165 28.0288 30.9507 36.8808C23.3849 45.7327 18.8832 56.7932 18.1171 68.4127C17.3509 80.0321 20.3612 91.588 26.6992 101.357C33.0371 111.126 42.3631 118.584 53.2861 122.619C64.2092 126.655 76.1441 127.051 87.3109 123.75C98.4778 120.448 108.278 113.625 115.25 104.298C122.223 94.9718 125.993 83.6413 126 71.9966V66.48C126 63.1663 128.686 60.48 132 60.48C135.314 60.48 138 63.1663 138 66.48V72C137.992 86.2324 133.383 100.084 124.862 111.483C116.34 122.883 104.362 131.222 90.7134 135.257C77.065 139.293 62.4779 138.808 49.1275 133.876C35.7771 128.943 24.3787 119.828 16.6323 107.888C8.88596 95.9485 5.20662 81.8247 6.14307 67.6231C7.07951 53.4216 12.5816 39.9032 21.8286 29.0841C31.0757 18.2651 43.5724 10.725 57.4548 7.58841C71.3373 4.45185 85.8618 5.88687 98.862 11.6794C101.889 13.0281 103.249 16.5752 101.901 19.602C100.552 22.6289 97.0049 23.9893 93.978 22.6406Z" fill="#6CB726"/>
<path fill-rule="evenodd" clip-rule="evenodd" d="M136.241 19.7552C138.585 22.0972 138.587 25.8962 136.245 28.2405L76.2448 88.3005C75.1197 89.4267 73.5933 90.0596 72.0015 90.06C70.4097 90.0604 68.8829 89.4282 67.7574 88.3026L49.7574 70.3026C47.4142 67.9595 47.4142 64.1605 49.7574 61.8174C52.1005 59.4742 55.8995 59.4742 58.2426 61.8174L71.9979 75.5726L127.755 19.7595C130.097 17.4152 133.896 17.4133 136.241 19.7552Z" fill="#6CB726"/>
</svg>
