<svg width="112" height="112" viewBox="0 0 112 112" fill="none" xmlns="http://www.w3.org/2000/svg">
<rect width="112" height="112" fill="#E0E0E0"/>
<path d="M53 66H59C64 66 66 64 66 59V53C66 48 64 46 59 46H53C48 46 46 48 46 53V59C46 64 48 66 53 66Z" stroke="#666666" stroke-width="1.5" stroke-linecap="round" stroke-linejoin="round"/>
<path d="M53 54C54.1046 54 55 53.1046 55 52C55 50.8954 54.1046 50 53 50C51.8954 50 51 50.8954 51 52C51 53.1046 51.8954 54 53 54Z" stroke="#666666" stroke-width="1.5" stroke-linecap="round" stroke-linejoin="round"/>
<path d="M46.67 62.95L51.6 59.64C52.39 59.11 53.53 59.17 54.24 59.78L54.57 60.07C55.35 60.74 56.61 60.74 57.39 60.07L61.55 56.5C62.33 55.83 63.59 55.83 64.37 56.5L66 57.9" stroke="#666666" stroke-width="1.5" stroke-linecap="round" stroke-linejoin="round"/>
</svg>
