<svg width="12" height="12" viewBox="0 0 12 12" fill="none" xmlns="http://www.w3.org/2000/svg">
<path d="M5.47287 2.0542H1.99397C1.73035 2.0542 1.47753 2.15892 1.29113 2.34533C1.10472 2.53173 1 2.78455 1 3.04817V10.006C1 10.2696 1.10472 10.5224 1.29113 10.7088C1.47753 10.8952 1.73035 10.9999 1.99397 10.9999H8.95176C9.21538 10.9999 9.4682 10.8952 9.65461 10.7088C9.84101 10.5224 9.94574 10.2696 9.94574 10.006V6.52707" stroke="white" stroke-linecap="round" stroke-linejoin="round"/>
<path d="M9.20028 1.30879C9.39799 1.11107 9.66615 1 9.94576 1C10.2254 1 10.4935 1.11107 10.6912 1.30879C10.8889 1.5065 11 1.77466 11 2.05426C11 2.33387 10.8889 2.60203 10.6912 2.79974L5.96987 7.5211L3.98193 8.01809L4.47892 6.03015L9.20028 1.30879Z" stroke="white" stroke-linecap="round" stroke-linejoin="round"/>
</svg>
