<svg width="24" height="24" viewBox="0 0 24 24" fill="none" xmlns="http://www.w3.org/2000/svg">
<circle cx="12" cy="12" r="12" fill="#E4E9EF"/>
<path d="M12.4729 8.0542H8.99397C8.73035 8.0542 8.47753 8.15892 8.29113 8.34533C8.10472 8.53173 8 8.78455 8 9.04817V16.006C8 16.2696 8.10472 16.5224 8.29113 16.7088C8.47753 16.8952 8.73035 16.9999 8.99397 16.9999H15.9518C16.2154 16.9999 16.4682 16.8952 16.6546 16.7088C16.841 16.5224 16.9457 16.2696 16.9457 16.006V12.5271" stroke="#A1A9B4" stroke-linecap="round" stroke-linejoin="round"/>
<path d="M16.2003 7.30879C16.398 7.11107 16.6661 7 16.9458 7C17.2254 7 17.4935 7.11107 17.6912 7.30879C17.8889 7.5065 18 7.77466 18 8.05426C18 8.33387 17.8889 8.60203 17.6912 8.79974L12.9699 13.5211L10.9819 14.0181L11.4789 12.0301L16.2003 7.30879Z" stroke="#A1A9B4" stroke-linecap="round" stroke-linejoin="round"/>
</svg>
