<?xml version="1.0" standalone="no"?>
<!DOCTYPE svg PUBLIC "-//W3C//DTD SVG 20010904//EN"
 "http://www.w3.org/TR/2001/REC-SVG-20010904/DTD/svg10.dtd">
<svg version="1.0" xmlns="http://www.w3.org/2000/svg"
 width="512.000000pt" height="512.000000pt" viewBox="0 0 512.000000 512.000000"
 preserveAspectRatio="xMidYMid meet">

<g transform="translate(0.000000,512.000000) scale(0.100000,-0.100000)"
fill="#6eb5ef" stroke="none">
<path d="M283 5102 c-90 -32 -150 -90 -195 -188 -22 -48 -23 -59 -26 -401 l-3
-353 330 0 331 0 0 313 c0 339 -7 404 -48 481 -71 131 -248 199 -389 148z"/>
<path d="M767 5098 c12 -13 41 -57 65 -98 l43 -75 5 -2305 5 -2305 32 -68 c81
-171 268 -271 449 -240 139 24 257 113 317 240 l32 68 5 328 5 329 24 19 c23
18 60 19 1432 19 l1409 0 0 1948 c0 1134 -4 1963 -10 1986 -14 63 -59 118
-119 149 l-55 27 -1830 0 -1829 0 20 -22z m2094 -564 c51 -15 71 -33 322 -283
148 -146 281 -286 295 -311 23 -39 27 -56 27 -125 0 -99 -22 -141 -123 -237
-81 -76 -144 -103 -223 -96 -42 4 -51 2 -74 -21 l-25 -27 44 -43 c43 -42 45
-43 67 -27 61 42 40 60 640 -540 397 -397 563 -570 580 -603 36 -71 39 -183 7
-253 -34 -75 -79 -122 -146 -155 -47 -23 -70 -28 -132 -28 -134 0 -116 -14
-740 609 -521 522 -554 557 -554 590 0 19 8 43 17 54 16 17 14 20 -28 62 l-45
44 -24 -23 c-21 -20 -24 -32 -24 -87 0 -87 -32 -152 -116 -233 -79 -75 -137
-103 -216 -103 -106 0 -128 16 -418 305 -293 292 -314 321 -314 425 0 86 28
141 115 227 83 81 134 105 226 105 l56 0 194 194 194 194 1 68 c2 84 26 134
99 212 104 109 199 141 318 106z m-357 -2123 c105 -52 148 -122 154 -253 4
-77 7 -88 22 -88 10 0 28 -12 39 -26 20 -25 21 -40 21 -210 0 -195 -6 -224
-47 -243 -34 -16 -1492 -16 -1526 0 -41 19 -47 48 -47 243 0 170 1 185 21 210
11 14 29 26 40 26 17 0 19 8 19 73 1 115 37 189 119 245 25 17 64 36 86 41 23
5 255 9 545 8 l505 -2 49 -24z"/>
<path d="M2740 4379 c-32 -13 -107 -85 -127 -123 -31 -59 -21 -73 257 -351
l260 -260 45 0 c41 0 49 5 105 60 67 66 81 104 57 151 -18 34 -492 507 -524
523 -26 13 -40 13 -73 0z"/>
<path d="M2365 3840 l-170 -170 218 -218 217 -217 170 170 170 170 -218 218
-217 217 -170 -170z"/>
<path d="M1883 3537 c-58 -59 -63 -67 -63 -108 l0 -44 263 -262 262 -263 44 0
c41 0 49 5 108 63 58 59 63 67 63 108 l0 44 -263 262 -262 263 -44 0 c-41 0
-49 -5 -108 -63z"/>
<path d="M2880 3315 l-54 -55 69 -70 c38 -39 74 -70 80 -70 6 0 35 25 65 55
l54 55 -69 70 c-38 39 -74 70 -80 70 -6 0 -35 -25 -65 -55z"/>
<path d="M3087 3112 l-127 -127 58 -58 57 -57 130 130 130 130 -55 55 c-30 30
-57 55 -60 55 -3 0 -63 -57 -133 -128z"/>
<path d="M3287 2912 l-97 -97 433 -433 c455 -454 438 -440 516 -433 89 8 150
116 110 194 -11 21 -849 867 -859 867 -3 0 -49 -44 -103 -98z"/>
<path d="M1414 2286 c-58 -25 -74 -59 -74 -152 l0 -84 590 0 590 0 0 84 c0 94
-16 127 -76 152 -48 20 -984 20 -1030 0z"/>
<path d="M1260 1830 l0 -110 670 0 670 0 0 110 0 110 -670 0 -670 0 0 -110z"/>
<path d="M1880 600 c0 -142 -5 -272 -11 -302 -15 -72 -69 -183 -120 -243 l-41
-50 238 -3 c132 -1 766 -1 1409 0 l1170 3 80 27 c203 69 365 228 426 418 17
51 22 100 26 233 l6 167 -1592 0 -1591 0 0 -250z"/>
</g>
</svg>
