<?xml version="1.0" standalone="no"?>
<!DOCTYPE svg PUBLIC "-//W3C//DTD SVG 20010904//EN"
 "http://www.w3.org/TR/2001/REC-SVG-20010904/DTD/svg10.dtd">
<svg version="1.0" xmlns="http://www.w3.org/2000/svg"
 width="512.000000pt" height="512.000000pt" viewBox="0 0 512.000000 512.000000"
 preserveAspectRatio="xMidYMid meet">

<g transform="translate(0.000000,512.000000) scale(0.100000,-0.100000)"
fill="#6eb5ef" stroke="none">
<path d="M3138 5105 c-58 -21 -102 -60 -134 -117 l-29 -53 -3 -368 c-4 -423 0
-447 69 -522 78 -85 18 -80 1014 -80 l880 0 41 22 c50 27 97 75 121 122 16 33
18 71 18 436 l0 400 -28 47 c-31 53 -79 94 -134 114 -57 20 -1761 19 -1815 -1z
m1792 -175 c19 -19 20 -33 20 -389 l0 -370 -26 -20 c-27 -21 -32 -21 -881 -21
l-854 0 -24 25 -25 24 0 359 c0 348 1 360 21 386 l20 26 865 0 c851 0 864 0
884 -20z"/>
<path d="M4058 4673 l-178 -178 -53 53 -53 52 -57 -58 -57 -57 113 -113 112
-112 235 235 235 235 -60 60 -60 60 -177 -177z"/>
<path d="M1215 4599 c-53 -26 -91 -64 -118 -118 -21 -44 -22 -59 -25 -323 l-3
-278 85 0 86 0 0 259 c0 143 3 267 6 276 18 45 18 45 814 45 l750 0 0 80 0 80
-777 0 c-754 -1 -779 -1 -818 -21z"/>
<path d="M3160 3791 c-71 -22 -127 -69 -164 -136 -20 -39 -21 -50 -21 -435 0
-386 0 -396 22 -435 25 -47 74 -95 123 -121 33 -18 76 -19 925 -19 l890 0 53
29 c28 16 63 44 77 62 53 69 55 87 55 483 0 420 -2 434 -76 507 -77 77 -36 74
-1003 73 -471 0 -867 -4 -881 -8z m1767 -183 l23 -21 0 -366 c0 -361 0 -365
-22 -388 l-21 -23 -859 0 -859 0 -24 25 -25 24 0 359 c0 348 1 360 21 386 l20
26 862 0 861 0 23 -22z"/>
<path d="M4053 3348 l-173 -173 -53 53 -53 52 -57 -58 -57 -57 113 -113 112
-112 235 235 235 235 -55 55 c-30 30 -59 55 -65 55 -5 0 -88 -78 -182 -172z"/>
<path d="M1036 3709 c-246 -26 -480 -133 -664 -304 -495 -461 -495 -1229 0
-1690 461 -428 1171 -410 1610 41 153 157 246 325 301 543 31 125 31 397 0
522 -57 225 -159 404 -319 562 -99 96 -174 150 -299 212 -127 63 -259 101
-401 115 -111 11 -118 11 -228 -1z m285 -174 c342 -60 625 -287 753 -607 51
-124 69 -223 69 -368 0 -264 -88 -487 -268 -678 -382 -406 -1019 -416 -1416
-22 -123 122 -211 272 -261 445 -20 70 -23 102 -23 255 0 153 3 185 23 255 93
320 317 564 622 676 157 57 337 73 501 44z"/>
<path d="M1058 3380 c-213 -26 -410 -136 -544 -304 -200 -250 -239 -587 -101
-871 110 -226 300 -382 546 -446 107 -29 287 -28 396 0 279 73 496 277 587
551 30 90 32 103 32 250 0 147 -2 160 -32 250 -72 217 -219 388 -417 486 -147
72 -314 102 -467 84z m237 -175 c39 -8 108 -33 155 -56 68 -34 102 -59 171
-128 134 -134 193 -274 193 -461 0 -186 -59 -325 -194 -461 -68 -69 -102 -94
-170 -128 -193 -94 -393 -95 -588 0 -163 79 -306 256 -347 430 -19 82 -19 236
0 318 41 174 184 351 348 430 141 69 284 87 432 56z"/>
<path d="M1065 2877 c-94 -31 -166 -93 -207 -175 -19 -39 -23 -63 -23 -142 0
-111 19 -162 88 -231 65 -66 135 -94 232 -94 71 0 88 4 147 33 99 48 154 122
178 235 38 188 -106 371 -303 383 -44 2 -87 -1 -112 -9z m184 -184 c50 -38 66
-71 66 -133 0 -44 -5 -66 -21 -86 -76 -102 -202 -102 -278 0 -29 39 -29 133 0
172 60 81 160 101 233 47z"/>
<path d="M2310 3220 l0 -80 250 0 250 0 0 80 0 80 -250 0 -250 0 0 -80z"/>
<path d="M3165 2471 c-69 -17 -134 -70 -171 -141 -18 -32 -19 -64 -19 -430 0
-385 1 -396 21 -435 28 -51 68 -91 119 -119 40 -21 42 -21 909 -24 985 -3 943
-6 1020 72 74 73 76 87 76 507 0 396 -2 414 -55 483 -14 18 -49 46 -77 62
l-53 29 -870 2 c-478 0 -883 -2 -900 -6z m1762 -183 l23 -21 0 -366 c0 -361 0
-365 -22 -388 l-21 -23 -863 0 -863 0 -20 26 c-20 26 -21 38 -21 386 l0 359
25 24 24 25 857 0 858 0 23 -22z"/>
<path d="M3300 1900 l0 -80 85 0 85 0 0 80 0 80 -85 0 -85 0 0 -80z"/>
<path d="M3630 1900 l0 -80 85 0 85 0 0 80 0 80 -85 0 -85 0 0 -80z"/>
<path d="M3960 1900 l0 -80 85 0 85 0 0 80 0 80 -85 0 -85 0 0 -80z"/>
<path d="M4290 1900 l0 -80 85 0 85 0 0 80 0 80 -85 0 -85 0 0 -80z"/>
<path d="M4620 1900 l0 -80 85 0 85 0 0 80 0 80 -85 0 -85 0 0 -80z"/>
<path d="M2310 1900 l0 -80 250 0 250 0 0 80 0 80 -250 0 -250 0 0 -80z"/>
<path d="M1072 963 c3 -305 5 -315 67 -385 17 -20 51 -45 76 -57 44 -21 53
-21 820 -21 l775 0 0 80 0 80 -750 0 c-796 0 -796 0 -814 45 -3 9 -6 133 -6
276 l0 259 -86 0 -85 0 3 -277z"/>
<path d="M3167 1149 c-56 -13 -89 -33 -130 -78 -65 -72 -69 -101 -65 -518 l3
-368 29 -53 c33 -59 76 -96 137 -117 59 -21 1753 -22 1812 -1 55 20 103 61
134 114 l28 47 0 400 c0 373 -1 403 -19 438 -24 49 -67 92 -120 120 l-41 22
-865 2 c-487 1 -882 -3 -903 -8z m1757 -180 l26 -20 0 -370 c0 -356 -1 -370
-20 -389 -20 -20 -33 -20 -884 -20 l-865 0 -20 26 c-20 26 -21 38 -21 386 l0
359 25 24 24 25 854 0 c849 0 854 0 881 -21z"/>
<path d="M4060 705 l-175 -175 -50 50 c-28 28 -55 50 -61 50 -5 0 -34 -25 -64
-55 l-55 -55 113 -113 112 -112 237 237 238 238 -55 55 c-30 30 -57 55 -60 55
-3 0 -84 -79 -180 -175z"/>
</g>
</svg>
