<?xml version="1.0" standalone="no"?>
<!DOCTYPE svg PUBLIC "-//W3C//DTD SVG 20010904//EN"
 "http://www.w3.org/TR/2001/REC-SVG-20010904/DTD/svg10.dtd">
<svg version="1.0" xmlns="http://www.w3.org/2000/svg"
 width="512.000000pt" height="512.000000pt" viewBox="0 0 512.000000 512.000000"
 preserveAspectRatio="xMidYMid meet">

<g transform="translate(0.000000,512.000000) scale(0.100000,-0.100000)"
fill="#6eb5ef" stroke="none">
<path d="M946 5104 c-34 -11 -64 -31 -101 -67 -84 -85 -85 -90 -85 -514 l0
-363 -304 0 c-191 0 -315 -4 -333 -11 -34 -13 -80 -55 -99 -91 -11 -22 -14
-102 -14 -426 0 -374 1 -401 18 -423 25 -30 75 -30 105 0 22 21 22 27 27 409
l5 387 298 3 297 2 0 -363 c0 -314 2 -370 17 -413 22 -64 102 -145 163 -166
l45 -15 3 -1451 2 -1452 -412 2 -413 3 -5 1418 -5 1419 -24 19 c-32 26 -73 24
-99 -4 l-22 -23 0 -1421 c0 -980 3 -1430 11 -1450 14 -38 57 -83 96 -99 27
-12 296 -14 1631 -14 l1599 0 27 21 c34 27 36 77 3 107 -23 22 -28 22 -380 22
l-357 0 0 1450 0 1450 665 0 665 0 0 -1450 0 -1450 -179 0 c-99 0 -187 -3
-196 -6 -44 -17 -48 -99 -7 -130 26 -20 1369 -20 1415 0 39 16 82 61 96 99 8
20 11 622 11 1968 0 1625 -2 1945 -14 1972 -16 39 -61 82 -99 96 -18 7 -142
11 -333 11 l-304 0 0 363 c0 424 -1 429 -85 514 -79 78 -104 83 -426 83 -147
0 -275 -3 -284 -6 -24 -10 -46 -60 -39 -89 13 -53 26 -55 314 -55 297 0 316
-4 352 -71 17 -32 18 -77 18 -814 0 -737 -1 -782 -18 -814 -10 -19 -34 -43
-53 -53 -32 -17 -101 -18 -1579 -18 -1478 0 -1547 1 -1579 18 -19 10 -43 34
-53 53 -17 32 -18 77 -18 812 0 852 -2 818 58 862 27 20 45 20 1191 23 l1165
2 23 22 c31 29 30 72 -2 103 l-24 25 -1163 -1 c-1004 0 -1170 -2 -1212 -15z
m4009 -3024 l0 -1925 -413 -3 -412 -2 2 1452 3 1451 45 15 c61 21 141 102 163
166 15 43 17 99 17 413 l0 363 298 -2 297 -3 0 -1925z m-2475 -480 l0 -1450
-665 0 -665 0 0 1450 0 1450 665 0 665 0 0 -1450z"/>
<path d="M1774 2803 c-75 -70 -140 -135 -145 -144 -24 -46 12 -109 63 -109 37
0 55 14 201 157 102 101 117 121 117 149 0 23 -8 38 -26 53 -48 38 -65 30
-210 -106z"/>
<path d="M1384 2428 c-36 -34 -67 -72 -70 -85 -12 -46 49 -102 93 -86 12 4 49
34 82 67 70 67 78 100 36 141 -40 40 -69 33 -141 -37z"/>
<path d="M1899 2452 c-9 -4 -69 -57 -133 -118 -106 -101 -116 -115 -116 -147
0 -26 7 -41 26 -56 47 -37 65 -29 186 85 117 111 137 135 138 170 0 20 -33 64
-50 64 -4 0 -14 2 -22 4 -7 3 -20 2 -29 -2z"/>
<path d="M1948 1991 l-33 -29 0 -327 0 -327 33 -29 c32 -29 34 -29 153 -29
114 0 121 1 144 25 14 13 25 36 25 50 0 14 -11 37 -25 50 -21 22 -33 25 -100
25 l-75 0 0 235 0 235 75 0 c67 0 79 3 100 25 14 13 25 36 25 50 0 14 -11 37
-25 50 -23 24 -30 25 -144 25 -119 0 -121 0 -153 -29z"/>
<path d="M1905 4816 c-63 -29 -118 -90 -142 -155 l-18 -51 -79 0 c-43 0 -97
-5 -120 -12 -55 -16 -148 -109 -164 -164 -8 -29 -12 -139 -12 -360 0 -358 2
-365 75 -439 56 -55 105 -73 210 -77 l90 -3 22 -54 c26 -65 81 -123 143 -154
39 -19 61 -22 173 -22 l129 0 34 37 34 38 0 195 0 195 280 0 280 0 0 -195 0
-195 34 -38 34 -37 129 0 c97 0 137 5 165 17 59 26 124 93 149 152 l22 53 86
5 c101 6 161 29 213 80 73 74 73 73 73 453 0 379 1 376 -72 448 -58 58 -109
77 -211 77 l-87 0 -18 51 c-24 65 -79 126 -142 155 -44 21 -65 24 -177 24
-127 0 -128 0 -160 -29 l-33 -29 -3 -201 -3 -201 -279 0 -279 0 -3 201 -3 201
-33 29 c-32 29 -33 29 -160 29 -112 0 -133 -3 -177 -24z m225 -731 l0 -605
-78 0 c-86 0 -112 11 -137 60 -23 44 -22 1047 0 1090 23 44 60 59 143 60 l72
0 0 -605z m1030 590 c61 -31 60 -24 60 -590 0 -438 -2 -520 -15 -545 -25 -49
-51 -60 -137 -60 l-78 0 0 605 0 605 70 0 c44 0 82 -6 100 -15z m-1415 -590
l0 -370 -78 -3 c-77 -3 -79 -2 -113 32 l-34 34 0 299 c0 280 1 300 20 331 26
43 50 52 135 49 l70 -2 0 -370z m1807 355 c47 -36 49 -56 46 -374 l-3 -298
-33 -29 c-32 -28 -37 -30 -110 -27 l-77 3 -3 360 c-1 198 0 366 3 372 3 9 28
13 78 13 59 0 80 -4 99 -20z m-712 -355 l0 -145 -280 0 -280 0 0 145 0 145
280 0 280 0 0 -145z"/>
<path d="M2875 1995 c-14 -13 -25 -36 -25 -50 0 -14 11 -37 25 -50 21 -22 33
-25 100 -25 l75 0 0 -235 0 -235 -75 0 c-67 0 -79 -3 -100 -25 -14 -13 -25
-36 -25 -50 0 -14 11 -37 25 -50 23 -24 30 -25 144 -25 119 0 121 0 153 29
l33 29 0 327 0 327 -33 29 c-32 29 -34 29 -153 29 -114 0 -121 -1 -144 -25z"/>
<path d="M3575 1169 c-60 -57 -75 -77 -75 -101 0 -59 45 -97 93 -79 35 14 138
112 152 145 23 54 -14 106 -75 106 -11 0 -54 -32 -95 -71z"/>
<path d="M3328 922 c-21 -9 -465 -431 -473 -450 -18 -47 22 -102 74 -102 25 0
60 28 218 179 300 284 307 294 261 345 -26 27 -55 38 -80 28z"/>
<path d="M3479 624 c-64 -64 -119 -124 -122 -134 -8 -29 19 -79 47 -86 45 -11
68 4 184 114 128 122 143 152 99 196 -17 17 -37 26 -58 26 -28 0 -49 -17 -150
-116z"/>
</g>
</svg>
