<?xml version="1.0" standalone="no"?>
<!DOCTYPE svg PUBLIC "-//W3C//DTD SVG 20010904//EN"
 "http://www.w3.org/TR/2001/REC-SVG-20010904/DTD/svg10.dtd">
<svg version="1.0" xmlns="http://www.w3.org/2000/svg"
 width="128.000000pt" height="128.000000pt" viewBox="0 0 128.000000 128.000000"
 preserveAspectRatio="xMidYMid meet">

<g transform="translate(0.000000,128.000000) scale(0.100000,-0.100000)"
fill="#6eb5ef" stroke="none">
<path d="M922 1264 c-20 -14 -22 -24 -22 -104 l0 -89 -287 -3 c-279 -3 -290
-4 -341 -27 -64 -29 -126 -96 -149 -163 -16 -44 -20 -48 -50 -48 -20 0 -41 -8
-53 -20 -19 -19 -20 -33 -20 -253 0 -194 3 -236 16 -255 15 -22 18 -22 274
-22 l258 0 4 -119 c4 -157 7 -161 130 -161 125 0 128 4 128 160 l0 120 220 0
220 0 15 24 c14 21 16 61 13 293 l-3 268 -27 51 c-40 75 -105 125 -185 142
-33 7 -38 12 -41 40 l-3 32 53 0 c74 0 98 18 98 75 0 63 -21 75 -135 75 -66 0
-97 -4 -113 -16z m203 -59 l0 -30 -70 -5 -70 -5 -3 -157 c-2 -150 -4 -158 -22
-158 -19 0 -20 7 -20 188 0 104 3 192 7 196 4 4 46 5 93 4 l85 -3 0 -30z
m-652 -198 c47 -20 95 -64 117 -108 37 -72 46 -69 -205 -69 -250 0 -241 -3
-209 66 19 39 74 90 118 110 40 17 138 18 179 1z m427 -73 c0 -81 -2 -88 -30
-120 -37 -43 -46 -90 -26 -137 41 -100 191 -100 232 0 20 47 11 94 -26 137
-28 32 -30 39 -30 120 0 79 2 86 20 86 36 0 110 -41 141 -79 53 -64 60 -110
57 -377 l-3 -239 -287 -3 -288 -2 0 258 c0 297 -5 326 -75 398 l-42 44 179 0
178 0 0 -86z m115 -146 c47 -41 28 -129 -30 -144 -59 -15 -109 27 -107 89 1
40 41 77 82 77 16 0 41 -10 55 -22z m-395 -7 c0 -13 -242 -201 -258 -201 -11
0 -211 150 -262 197 -12 11 30 13 253 13 157 0 267 -4 267 -9z m-434 -126 c74
-58 146 -111 159 -117 29 -13 38 -8 172 99 51 40 94 73 98 73 3 0 4 -87 3
-192 l-3 -193 -285 0 -285 0 -3 218 c-1 119 0 217 4 217 3 0 66 -47 140 -105z
m582 -492 l-3 -118 -80 0 -80 0 -3 118 -3 117 86 0 86 0 -3 -117z"/>
<path d="M92 418 l3 -53 45 0 c35 0 45 4 48 18 3 12 -5 19 -27 23 -23 5 -31
12 -33 33 -2 15 -10 27 -21 29 -16 3 -18 -3 -15 -50z"/>
</g>
</svg>
