<?xml version="1.0" standalone="no"?>
<!DOCTYPE svg PUBLIC "-//W3C//DTD SVG 20010904//EN"
 "http://www.w3.org/TR/2001/REC-SVG-20010904/DTD/svg10.dtd">
<svg version="1.0" xmlns="http://www.w3.org/2000/svg"
 width="512.000000pt" height="512.000000pt" viewBox="0 0 512.000000 512.000000"
 preserveAspectRatio="xMidYMid meet">

<g transform="translate(0.000000,512.000000) scale(0.100000,-0.100000)"
fill="#6eb5ef" stroke="none">
<path d="M2435 4950 c-146 -27 -271 -94 -380 -204 -92 -93 -144 -177 -182
-291 -23 -71 -26 -96 -26 -215 0 -119 3 -144 26 -215 38 -115 91 -199 182
-290 91 -91 175 -144 290 -182 71 -23 96 -26 215 -26 119 0 144 3 215 26 115
38 199 91 290 182 91 91 144 175 182 290 23 71 26 96 26 215 0 119 -3 144 -26
215 -38 115 -91 199 -182 290 -139 140 -284 203 -475 210 -58 2 -127 0 -155
-5z m231 -161 c194 -35 362 -187 430 -389 26 -76 26 -244 0 -320 -61 -183
-192 -314 -376 -376 -76 -26 -244 -26 -320 0 -271 91 -432 344 -392 617 26
180 141 337 305 418 118 58 225 73 353 50z"/>
<path d="M2480 4671 c0 -45 -2 -50 -30 -61 -68 -28 -130 -129 -130 -210 0
-123 116 -240 239 -240 42 0 81 -38 81 -80 0 -41 -39 -80 -80 -80 -33 0 -80
38 -80 65 0 12 -15 15 -80 15 -89 0 -90 0 -68 -72 14 -48 76 -121 118 -138 28
-11 30 -16 30 -61 l0 -49 80 0 80 0 0 49 c0 45 2 50 30 61 68 28 130 129 130
210 0 123 -116 240 -239 240 -42 0 -81 38 -81 80 0 41 39 80 80 80 33 0 80
-38 80 -65 0 -12 15 -15 80 -15 89 0 90 0 68 72 -14 48 -76 121 -118 138 -28
11 -30 16 -30 61 l0 49 -80 0 -80 0 0 -49z"/>
<path d="M825 4309 c-294 -58 -531 -260 -619 -528 -99 -301 -28 -607 190 -825
156 -156 338 -231 564 -231 226 0 408 75 564 231 156 156 231 338 231 564 0
174 -36 298 -124 432 -113 173 -274 288 -481 345 -68 18 -258 25 -325 12z
m270 -164 c216 -45 409 -223 478 -440 17 -55 22 -94 22 -185 0 -91 -5 -130
-22 -185 -63 -199 -229 -365 -428 -428 -99 -31 -271 -31 -370 0 -163 52 -309
175 -383 323 -95 189 -95 390 -2 576 132 262 417 399 705 339z"/>
<path d="M719 3829 c-118 -93 -220 -178 -226 -186 -21 -27 -15 -72 12 -98 20
-21 34 -25 80 -25 l55 0 0 -175 c0 -173 0 -176 25 -200 l24 -25 271 0 271 0
24 25 c25 24 25 27 25 200 l0 175 55 0 c46 0 60 4 80 25 27 26 33 71 13 98 -7
8 -109 93 -227 186 -160 128 -220 171 -241 171 -21 0 -81 -43 -241 -171z m332
-84 l81 -65 -172 0 -172 0 79 64 c43 36 84 65 91 65 7 1 49 -28 93 -64z m69
-345 l0 -120 -160 0 -160 0 0 120 0 120 160 0 160 0 0 -120z"/>
<path d="M4025 4309 c-294 -58 -531 -260 -619 -528 -99 -301 -28 -607 190
-825 156 -156 338 -231 564 -231 226 0 408 75 564 231 156 156 231 338 231
564 0 174 -36 298 -124 432 -113 173 -274 288 -481 345 -68 18 -258 25 -325
12z m270 -164 c216 -45 409 -223 478 -440 31 -99 31 -271 0 -370 -63 -199
-229 -365 -428 -428 -99 -31 -271 -31 -370 0 -163 52 -309 175 -383 323 -95
189 -95 390 -2 576 132 262 417 399 705 339z"/>
<path d="M3945 3975 c-23 -22 -25 -32 -25 -120 l0 -95 -95 0 c-88 0 -98 -2
-120 -25 -25 -24 -25 -26 -25 -215 0 -189 0 -191 25 -215 22 -23 32 -25 120
-25 l95 0 0 -95 c0 -88 2 -98 25 -120 24 -25 26 -25 215 -25 189 0 191 0 215
25 23 22 25 32 25 120 l0 95 95 0 c88 0 98 2 120 25 25 24 25 26 25 215 0 189
0 191 -25 215 -22 23 -32 25 -120 25 l-95 0 0 95 c0 88 -2 98 -25 120 -24 25
-26 25 -215 25 -189 0 -191 0 -215 -25z m295 -230 c0 -88 2 -98 25 -120 22
-23 32 -25 120 -25 l95 0 0 -80 0 -80 -95 0 c-88 0 -98 -2 -120 -25 -23 -22
-25 -32 -25 -120 l0 -95 -80 0 -80 0 0 95 c0 88 -2 98 -25 120 -22 23 -32 25
-120 25 l-95 0 0 80 0 80 95 0 c88 0 98 2 120 25 23 22 25 32 25 120 l0 95 80
0 80 0 0 -95z"/>
<path d="M2441 3344 c-253 -68 -410 -331 -346 -577 21 -80 59 -152 111 -207
l45 -48 -54 -30 c-86 -49 -171 -141 -217 -235 -21 -45 -43 -109 -49 -141 -6
-34 -11 -196 -11 -378 l0 -319 25 -24 24 -25 591 0 591 0 24 25 25 24 0 319
c0 182 -5 344 -11 378 -26 143 -139 304 -264 375 l-56 31 45 48 c106 114 150
284 111 433 -67 259 -333 419 -584 351z m250 -177 c48 -22 115 -74 107 -82 -2
-2 -28 4 -58 12 -37 11 -96 16 -180 16 -84 0 -143 -5 -180 -16 -30 -8 -56 -14
-58 -12 -2 2 9 15 25 30 90 85 230 106 344 52z m43 -236 c33 -12 79 -33 103
-47 41 -24 44 -28 38 -57 -21 -101 -86 -186 -178 -234 -45 -23 -64 -27 -137
-27 -73 0 -92 4 -137 27 -92 48 -157 133 -178 234 -6 29 -3 33 37 57 49 28
113 53 173 66 64 14 212 4 279 -19z m-355 -688 c-32 -81 -59 -156 -59 -167 1
-12 42 -102 93 -201 99 -194 114 -210 175 -189 22 7 43 40 119 189 51 99 92
189 93 201 0 11 -27 87 -60 168 l-59 149 39 -6 c110 -15 228 -108 283 -225
l32 -67 3 -287 3 -288 -481 0 -481 0 3 288 3 287 27 57 c33 72 69 119 120 160
46 36 141 77 180 78 l26 0 -59 -147z m220 -76 l33 -84 -33 -66 c-18 -37 -36
-67 -39 -67 -3 0 -21 30 -39 67 l-33 66 33 84 c17 46 35 83 39 83 4 0 22 -37
39 -83z"/>
<path d="M705 1981 c-79 -36 -134 -130 -122 -208 l6 -34 -44 39 c-92 81 -225
81 -314 -1 -58 -53 -85 -162 -60 -238 7 -19 124 -194 260 -390 l249 -355 177
-155 c98 -85 212 -182 253 -216 104 -84 166 -153 180 -201 11 -35 17 -41 49
-46 20 -3 56 -6 80 -6 l43 0 -7 48 c-16 112 -77 195 -247 333 -57 46 -173 145
-259 220 l-155 138 -235 335 c-129 184 -235 346 -237 360 -4 32 37 76 70 76
30 0 61 -32 273 -280 91 -107 183 -205 203 -217 20 -13 169 -67 330 -120 331
-110 322 -105 322 -208 l0 -55 80 0 80 0 0 63 c0 89 -8 110 -116 299 -86 149
-96 173 -88 196 5 14 22 33 37 42 24 13 30 13 54 0 15 -9 95 -111 180 -230
255 -360 258 -367 257 -747 l-1 -263 77 0 77 0 6 113 c20 333 -6 535 -88 696
-23 47 -330 486 -369 529 -39 44 -96 66 -167 67 -56 0 -73 -4 -115 -30 -30
-19 -60 -49 -79 -79 -26 -42 -30 -59 -30 -115 1 -49 7 -77 24 -109 12 -24 21
-46 18 -48 -2 -2 -28 4 -58 14 l-54 18 -106 209 c-75 147 -111 231 -124 284
-33 144 -53 195 -87 228 -64 62 -147 79 -223 44z m103 -150 c8 -4 28 -66 46
-137 25 -99 48 -160 99 -261 37 -73 67 -135 67 -137 0 -2 -16 1 -36 7 -26 8
-56 35 -113 101 l-78 91 -26 154 c-19 109 -23 159 -16 172 10 20 35 24 57 10z"/>
<path d="M4260 1984 c-83 -36 -111 -85 -155 -275 -13 -53 -49 -137 -124 -284
l-106 -209 -50 -17 c-74 -26 -76 -24 -47 29 22 38 27 60 27 113 0 56 -5 73
-30 115 -19 30 -49 60 -79 79 -42 26 -59 30 -115 30 -71 -1 -128 -23 -167 -67
-39 -43 -346 -482 -369 -529 -82 -161 -108 -363 -88 -696 l6 -113 77 0 77 0
-1 263 c-1 380 2 387 257 747 85 119 165 221 180 230 24 13 30 13 54 0 15 -9
32 -28 37 -42 8 -23 -2 -47 -88 -196 -108 -189 -116 -210 -116 -299 l0 -63 80
0 80 0 0 55 c0 103 -9 98 322 208 161 53 310 107 330 120 20 12 112 110 203
217 212 248 243 280 273 280 29 0 72 -42 72 -71 0 -11 -107 -174 -237 -362
l-238 -340 -155 -137 c-85 -75 -203 -175 -262 -223 -169 -138 -227 -216 -243
-330 l-7 -47 43 0 c24 0 60 3 80 6 32 5 38 11 49 46 14 48 76 117 180 201 41
34 155 131 253 216 l177 155 249 355 c136 196 253 371 260 390 17 51 13 110
-10 161 -27 60 -54 88 -114 116 -87 41 -175 28 -250 -38 l-44 -39 6 34 c23
143 -143 269 -277 211z m105 -160 c10 -11 14 -26 11 -43 -3 -14 -15 -84 -27
-156 l-22 -130 -78 -91 c-57 -66 -87 -93 -113 -101 -20 -6 -36 -9 -36 -7 0 2
30 64 67 137 51 101 74 162 99 261 18 71 38 133 46 137 20 13 35 11 53 -7z"/>
</g>
</svg>
