<svg width="20" height="21" viewBox="0 0 20 21" fill="none" xmlns="http://www.w3.org/2000/svg">
<path fill-rule="evenodd" clip-rule="evenodd" d="M-1.10296e-05 3.1665H2.66666V7.1665H3.99999V8.49984H-1.10296e-05V7.1665H1.33332V4.49984H-1.10296e-05V3.1665ZM20 5.83317H6.66666V4.49984H20V5.83317ZM20 11.1665H6.66666V9.83317H20V11.1665ZM-1.10296e-05 15.8332C-1.10296e-05 14.7286 0.89542 13.8332 1.99999 13.8332H2.39051C3.2794 13.8332 3.99999 14.5538 3.99999 15.4426C3.99999 15.8695 3.83042 16.2789 3.52858 16.5807L2.27613 17.8332H3.99999V19.1665H0.666656C0.397014 19.1665 0.153923 19.0041 0.0507359 18.755C-0.0524514 18.5058 0.00458578 18.2191 0.195251 18.0284L2.58578 15.6379C2.63756 15.5861 2.66666 15.5159 2.66666 15.4426C2.66666 15.2901 2.54302 15.1665 2.39051 15.1665H1.99999C1.6318 15.1665 1.33332 15.465 1.33332 15.8332H-1.10296e-05ZM20 16.4998H6.66666V15.1665H20V16.4998Z" fill="#1D1D1D"/>
</svg>
