<svg width="20" height="21" viewBox="0 0 20 21" fill="none" xmlns="http://www.w3.org/2000/svg">
<path fill-rule="evenodd" clip-rule="evenodd" d="M6 0.5C4.15905 0.5 2.66667 1.99238 2.66667 3.83333V8.89045L2.0808 9.47632C0.779054 10.7781 0.779057 12.8886 2.0808 14.1904L6.30957 18.4191C7.61131 19.7209 9.72187 19.7209 11.0236 18.4191L16.5857 12.857C17.8875 11.5553 17.8875 9.44473 16.5857 8.14298L12.3569 3.91422C11.5101 3.0674 10.321 2.77146 9.235 3.02639C8.87422 1.57533 7.56269 0.5 6 0.5ZM8 5.44274V9.83333H9.33333V4.3851C10.0369 4.13702 10.8514 4.29433 11.4141 4.85703L15.6429 9.08579C16.424 9.86684 16.424 11.1332 15.6429 11.9142L15.0571 12.5H2.55171C2.30359 11.7965 2.46089 10.9818 3.02361 10.4191L8 5.44274ZM7.98801 3.61305C7.87834 2.61213 7.03012 1.83333 6 1.83333C4.89543 1.83333 4 2.72876 4 3.83333V7.55712L7.6429 3.91422C7.75252 3.8046 7.86788 3.70421 7.98801 3.61305Z" fill="#1D1D1D"/>
<path d="M16.8593 13.4826L18.9051 15.5284C20.1244 16.7477 20.0132 18.7561 18.6667 19.8333C17.61 20.6786 16.1086 20.6786 15.052 19.8333C13.7055 18.7561 13.5943 16.7477 14.8136 15.5284L16.8593 13.4826Z" fill="#1D1D1D"/>
</svg>
