<svg width="20" height="21" viewBox="0 0 20 21" fill="none" xmlns="http://www.w3.org/2000/svg">
<path fill-rule="evenodd" clip-rule="evenodd" d="M4 2.60577C4 2.17925 4.34576 1.8335 4.77228 1.8335H11.3333C13.9107 1.8335 16 3.92283 16 6.50016C16 7.96036 15.3294 9.26392 14.2793 10.1196C16.0619 10.7761 17.3333 12.4897 17.3333 14.5002C17.3333 17.0775 15.244 19.1668 12.6667 19.1668H4.78548C4.35166 19.1668 4 18.8151 4 18.3813V2.60577ZM5.33333 11.1668V17.8335H12.6667C14.5076 17.8335 16 16.3411 16 14.5002C16 12.6592 14.5076 11.1668 12.6667 11.1668H5.33333ZM5.33333 9.8335H11.3333C13.1743 9.8335 14.6667 8.34111 14.6667 6.50016C14.6667 4.65921 13.1743 3.16683 11.3333 3.16683H5.33333V9.8335Z" fill="#1D1D1D"/>
</svg>
