<svg width="24" height="25" viewBox="0 0 24 25" fill="none" xmlns="http://www.w3.org/2000/svg">
<path d="M9 22.5H15C20 22.5 22 20.5 22 15.5V9.5C22 4.5 20 2.5 15 2.5H9C4 2.5 2 4.5 2 9.5V15.5C2 20.5 4 22.5 9 22.5Z" stroke="#666666" stroke-width="1.5" stroke-linecap="round" stroke-linejoin="round"/>
<path d="M9 10.5C10.1046 10.5 11 9.60457 11 8.5C11 7.39543 10.1046 6.5 9 6.5C7.89543 6.5 7 7.39543 7 8.5C7 9.60457 7.89543 10.5 9 10.5Z" stroke="#666666" stroke-width="1.5" stroke-linecap="round" stroke-linejoin="round"/>
<path d="M2.67 19.45L7.6 16.14C8.39 15.61 9.53 15.67 10.24 16.28L10.57 16.57C11.35 17.24 12.61 17.24 13.39 16.57L17.55 13C18.33 12.33 19.59 12.33 20.37 13L22 14.4" stroke="#666666" stroke-width="1.5" stroke-linecap="round" stroke-linejoin="round"/>
</svg>
