<svg width="24" height="24" viewBox="0 0 24 24" fill="none" xmlns="http://www.w3.org/2000/svg">
<path fill-rule="evenodd" clip-rule="evenodd" d="M12 22C17.5228 22 22 17.5228 22 12C22 6.47715 17.5228 2 12 2C6.47715 2 2 6.47715 2 12C2 17.5228 6.47715 22 12 22ZM15.0099 14.9991C15.3499 14.6601 15.3499 14.1101 15.0099 13.7701L13.2299 11.9901L15.0099 10.2091C15.3499 9.87011 15.3499 9.31011 15.0099 8.97011C14.6699 8.62911 14.1199 8.62911 13.7699 8.97011L11.9999 10.7491L10.2199 8.97011C9.86985 8.62911 9.31985 8.62911 8.97985 8.97011C8.63985 9.31011 8.63985 9.87011 8.97985 10.2091L10.7599 11.9901L8.97985 13.7601C8.63985 14.1101 8.63985 14.6601 8.97985 14.9991C9.14985 15.1691 9.37985 15.2601 9.59985 15.2601C9.82985 15.2601 10.0499 15.1691 10.2199 14.9991L11.9999 13.2301L13.7799 14.9991C13.9499 15.1801 14.1699 15.2601 14.3899 15.2601C14.6199 15.2601 14.8399 15.1691 15.0099 14.9991Z" fill="#A2ABBE"/>
</svg>
