<svg width="15" height="15" viewBox="0 0 15 15" fill="none" xmlns="http://www.w3.org/2000/svg">
<path d="M8.75273 8.75282C8.59043 8.92699 8.39472 9.06669 8.17727 9.16358C7.95982 9.26047 7.72508 9.31257 7.48705 9.31677C7.24903 9.32097 7.0126 9.27718 6.79186 9.18802C6.57112 9.09887 6.37061 8.96616 6.20227 8.79782C6.03394 8.62949 5.90123 8.42897 5.81207 8.20824C5.72291 7.9875 5.67913 7.75107 5.68333 7.51304C5.68753 7.27502 5.73963 7.04028 5.83652 6.82283C5.93341 6.60537 6.0731 6.40966 6.24727 6.24737M11.01 11.0101C9.99989 11.7801 8.76993 12.2066 7.5 12.2274C3.36364 12.2274 1 7.5001 1 7.5001C1.73503 6.13031 2.75449 4.93355 3.99 3.9901L11.01 11.0101ZM6.25909 2.91464C6.66583 2.81944 7.08226 2.77184 7.5 2.77282C11.6364 2.77282 14 7.5001 14 7.5001C13.6413 8.17114 13.2135 8.8029 12.7236 9.3851L6.25909 2.91464Z" stroke="#A1A9B4" stroke-linecap="round" stroke-linejoin="round"/>
<path d="M1 1L14 14" stroke="#A1A9B4" stroke-linecap="round" stroke-linejoin="round"/>
</svg>
