<svg width="25" height="25" viewBox="0 0 25 25" fill="none" xmlns="http://www.w3.org/2000/svg">
<circle cx="12.5" cy="12.5" r="12.5" fill="#EB5757"/>
<path d="M13.25 7C13.25 6.30964 12.6904 5.75 12 5.75C11.3096 5.75 10.75 6.30964 10.75 7L13.25 7ZM10.75 13.7588C10.75 14.4492 11.3096 15.0088 12 15.0088C12.6904 15.0088 13.25 14.4492 13.25 13.7588L10.75 13.7588ZM13.25 17.9831C13.25 17.2927 12.6904 16.7331 12 16.7331C11.3096 16.7331 10.75 17.2927 10.75 17.9831L13.25 17.9831ZM10.75 18C10.75 18.6904 11.3096 19.25 12 19.25C12.6904 19.25 13.25 18.6904 13.25 18L10.75 18ZM10.75 7L10.75 13.7588L13.25 13.7588L13.25 7L10.75 7ZM10.75 17.9831L10.75 18L13.25 18L13.25 17.9831L10.75 17.9831Z" fill="white"/>
</svg>
